<?xml version="1.0" encoding="UTF-8"?><svg id="Layer_1" xmlns="http://www.w3.org/2000/svg" viewBox="0 0 95.09 73.98"><defs><style>.cls-1{fill:#bfd200;}.cls-1,.cls-2,.cls-3,.cls-4,.cls-5,.cls-6{fill-rule:evenodd;}.cls-2{fill:#52b788;}.cls-7{fill:#381a0b;}.cls-3{fill:#40916c;}.cls-4{fill:#60b404;}.cls-5{fill:#faa307;}.cls-6{fill:#f48c06;}</style></defs><path class="cls-5" d="m61.87,49.96l2.57.86c6.59-2.28,13.81-5.92,16.88-8.47l-7.39-2.63c-2.83,2.44-5.59,6.09-8.19,7.81-1.39.92-2.7,1.73-3.88,2.43"/><path class="cls-6" d="m61.87,49.96l2.57.86c6.59-2.28,13.81-5.92,16.88-8.47l-1.38-.49h0s-13.41,7.56-18.08,8.11"/><path class="cls-2" d="m48.99,56.53s-.72,1.55-.75,1.55c-6.44-.07-10.53-2.19-12.83-4.74-.84-.93-1.45-1.94-1.84-2.93-.41-1.02-.59-2.03-.58-2.95.02-1.51.55-2.82,1.47-3.65,1.48-1.34,4.01-1.29,6.39-.82-.41-.51-.8-1.02-1.17-1.54-4.34-6.12-10.15-4.99-13.9-3.29,2.79,1.09,1.66,3.29,2.15,6.3.15.91.1,3.28.36,4.2.69,2.44,2.99,5.22,5.67,7.93,1.95,1.98,4.43,4.09,8.08,5.23,1.84.58,5.28,1.97,6.95,2.21l.33.02v.02c6.91.89,11.52-2.81,14.42-4.11l-4.76-2.53c-1.37.19-2.36-1.47-4.04-1.35-1.83.12-3.72.46-5.96.44"/><path class="cls-7" d="m70.89,14.93c-.53-.53-.53-1.38,0-1.91.53-.53,1.38-.53,1.91,0,6.97,6.97,10.46,16.11,10.46,25.25s-3.49,18.28-10.46,25.25c-6.97,6.97-16.11,10.46-25.25,10.46s-18.28-3.49-25.25-10.46c-6.97-6.97-10.46-16.11-10.46-25.25s3.49-18.28,10.46-25.25c.53-.53,1.38-.53,1.91,0,.53.53.53,1.38,0,1.91-6.45,6.45-9.67,14.89-9.67,23.34s3.22,16.9,9.67,23.34c6.45,6.45,14.9,9.67,23.34,9.67s16.9-3.22,23.34-9.67c6.45-6.45,9.67-14.9,9.67-23.34s-3.22-16.9-9.67-23.34"/><path class="cls-1" d="m84.19,26.39c.93,0,1.87-.16,2.76-.46,1.23-.41,2.38-1.11,3.37-2.1.99-.99,1.69-2.15,2.1-3.37.3-.9.46-1.83.46-2.76-.93,0-1.87.16-2.76.46-1.23.41-2.38,1.11-3.37,2.1-.99.99-1.69,2.15-2.1,3.37-.3.9-.45,1.83-.46,2.76"/><path class="cls-1" d="m80.96,12.57c.94-.89,1.7-2.01,2.18-3.31.48-1.31.63-2.65.5-3.94-.1-.93-.35-1.84-.74-2.69-.84.39-1.62.92-2.31,1.57-.94.89-1.7,2.01-2.18,3.31-.48,1.31-.63,2.65-.5,3.94.1.93.35,1.84.74,2.69.84-.39,1.62-.92,2.31-1.57"/><path class="cls-4" d="m71.29,23.14c-.85-1.05-1.94-1.92-3.26-2.53-1.31-.61-2.7-.87-4.04-.83-.98.03-1.94.22-2.85.55.34.91.83,1.76,1.44,2.52.85,1.05,1.94,1.92,3.26,2.53,1.31.61,2.7.87,4.04.83.98-.03,1.94-.22,2.85-.55-.34-.91-.83-1.76-1.44-2.52"/><path class="cls-1" d="m32.41,22.85c.6-.75,1.08-1.58,1.41-2.47-.89-.33-1.83-.51-2.79-.54-1.32-.04-2.67.22-3.95.81-1.28.59-2.36,1.45-3.18,2.47-.6.75-1.08,1.58-1.41,2.47.89.33,1.83.51,2.79.54,1.32.04,2.67-.22,3.95-.81,1.28-.59,2.36-1.45,3.18-2.47"/><path class="cls-1" d="m16.34,13.85c.37-.81.61-1.67.7-2.55.13-1.22-.01-2.5-.47-3.74-.46-1.24-1.18-2.3-2.07-3.14-.65-.61-1.39-1.12-2.19-1.49-.37.81-.61,1.67-.7,2.56-.13,1.22.01,2.5.47,3.74.46,1.24,1.18,2.3,2.07,3.14.65.61,1.39,1.12,2.19,1.49"/><path class="cls-4" d="m8.39,20.2c-1.02-1.02-2.21-1.74-3.47-2.16-.92-.31-1.88-.47-2.85-.47,0,.96.16,1.92.47,2.85.43,1.26,1.15,2.45,2.16,3.47,1.02,1.02,2.21,1.74,3.47,2.16.92.31,1.88.47,2.85.47,0-.96-.16-1.92-.47-2.85-.43-1.26-1.15-2.45-2.16-3.47"/><path class="cls-7" d="m5.15,18.58c-.8-.27-1.63-.4-2.46-.41,0,.83.14,1.66.41,2.46.37,1.09.99,2.12,1.87,3,.88.88,1.91,1.5,3,1.87.8.27,1.63.4,2.46.41,0-.83-.14-1.66-.41-2.46-.37-1.09-.99-2.12-1.87-3-.88-.88-1.91-1.5-3-1.87m-3.9-3c1.59-.21,3.22-.06,4.75.45,1.49.5,2.88,1.34,4.05,2.51,1.17,1.17,2.01,2.56,2.51,4.05.52,1.53.67,3.16.45,4.75l-.14,1.02-1.02.14c-1.59.21-3.22.06-4.75-.45-1.49-.5-2.88-1.34-4.05-2.51-1.17-1.17-2.01-2.56-2.51-4.05-.52-1.53-.67-3.16-.45-4.75l.14-1.02,1.02-.14Z"/><path class="cls-7" d="m30.76,17.56c1.62.05,3.2.47,4.62,1.22l.91.48-.22,1c-.35,1.57-1.06,3.05-2.07,4.3-.98,1.22-2.25,2.23-3.76,2.93-1.51.7-3.1,1-4.66.96-1.62-.05-3.2-.47-4.62-1.22l-.91-.48.22-1c.35-1.57,1.06-3.05,2.07-4.3.98-1.22,2.25-2.23,3.76-2.93,1.51-.7,3.1-1,4.66-.95m2.37,3.15c-.78-.29-1.61-.45-2.44-.47-1.16-.03-2.34.19-3.46.71-1.13.52-2.07,1.27-2.79,2.17-.53.65-.94,1.39-1.24,2.16.78.29,1.61.45,2.44.47,1.16.03,2.34-.19,3.46-.71,1.13-.52,2.07-1.27,2.79-2.17.53-.65.94-1.39,1.24-2.16Z"/><path class="cls-7" d="m14.49,4.66c-.61-.58-1.31-1.05-2.06-1.4-.34.76-.57,1.57-.66,2.4-.12,1.15.01,2.35.44,3.51.43,1.16,1.1,2.16,1.94,2.95.61.58,1.31,1.05,2.06,1.4.34-.76.57-1.57.66-2.4.12-1.15-.01-2.35-.44-3.51-.43-1.16-1.1-2.16-1.94-2.95M12.2.3c1.53.47,2.95,1.29,4.13,2.4,1.14,1.07,2.05,2.42,2.63,3.98.58,1.56.76,3.17.59,4.72-.17,1.61-.72,3.16-1.57,4.51l-.55.86-.98-.3c-1.53-.47-2.95-1.29-4.13-2.4-1.14-1.07-2.05-2.42-2.63-3.98-.58-1.56-.76-3.17-.59-4.72.17-1.61.72-3.16,1.57-4.51l.55-.86.98.3Z"/><path class="cls-7" d="m89.09,16.04c1.53-.52,3.16-.67,4.75-.45l1.02.14.14,1.02c.21,1.59.06,3.22-.45,4.75-.5,1.49-1.34,2.88-2.51,4.05-1.17,1.17-2.56,2.01-4.05,2.51-1.53.52-3.16.67-4.75.45l-1.02-.14-.14-1.02c-.21-1.59-.06-3.22.45-4.75.5-1.49,1.34-2.88,2.51-4.05,1.17-1.17,2.56-2.01,4.05-2.51m3.31,2.14c-.83,0-1.66.14-2.46.41-1.09.37-2.12.99-3,1.87s-1.5,1.91-1.87,3c-.27.8-.4,1.63-.41,2.46.83,0,1.66-.14,2.46-.41,1.09-.37,2.12-.99,3-1.87s1.5-1.91,1.87-3c.27-.8.4-1.63.41-2.46Z"/><path class="cls-7" d="m64.41,20.24c-.84.02-1.66.18-2.44.47.29.78.71,1.51,1.24,2.16.73.9,1.67,1.65,2.79,2.17,1.13.52,2.31.75,3.46.71.84-.02,1.66-.18,2.44-.47-.29-.78-.71-1.51-1.24-2.16-.73-.9-1.67-1.65-2.79-2.17-1.13-.52-2.31-.75-3.46-.71m-4.69-1.47c1.41-.75,2.99-1.17,4.62-1.22,1.56-.04,3.15.26,4.66.96,1.51.7,2.78,1.71,3.76,2.93,1.01,1.26,1.72,2.73,2.07,4.3l.22,1-.91.48c-1.41.75-2.99,1.17-4.62,1.22-1.56.04-3.15-.26-4.66-.96-1.51-.7-2.78-1.71-3.76-2.93-1.01-1.26-1.72-2.73-2.07-4.3l-.22-1,.91-.48Z"/><path class="cls-7" d="m78.76,2.7c1.17-1.11,2.59-1.93,4.13-2.4l.98-.3.55.86c.86,1.35,1.4,2.9,1.57,4.51.17,1.55-.01,3.16-.59,4.72-.58,1.56-1.49,2.91-2.63,3.98-1.17,1.11-2.59,1.93-4.13,2.4l-.98.3-.55-.86c-.86-1.35-1.4-2.9-1.57-4.51-.17-1.55.01-3.16.59-4.72.58-1.56,1.49-2.91,2.63-3.98m3.9.56c-.75.35-1.45.82-2.06,1.4-.84.79-1.51,1.79-1.94,2.95-.43,1.16-.56,2.36-.44,3.51.09.83.31,1.64.66,2.4.75-.35,1.45-.82,2.06-1.4.84-.79,1.51-1.79,1.94-2.95.43-1.16.56-2.36.44-3.51-.09-.83-.31-1.64-.66-2.4Z"/><path class="cls-7" d="m39.69,41.45c-4.34-6.12-10.15-4.99-13.9-3.29,2.79,1.09,3.21,3.69,3.7,6.71.15.91.3,1.86.57,2.79.69,2.44,2.05,5.56,4.72,8.27,1.95,1.98,4.63,3.75,8.28,4.9,9.65,3.02,17.06.79,20.69-.84l-4.76-2.53c-1.37.19-2.9.35-4.58.47-1.85.13-3.9.19-6.17.16-6.44-.07-10.53-2.19-12.83-4.74-.84-.93-1.45-1.94-1.84-2.93-.41-1.02-.59-2.03-.58-2.95.02-1.51.55-2.82,1.47-3.65,1.48-1.34,4.01-1.29,6.39-.82-.41-.51-.8-1.02-1.17-1.54m-19.51-3.49c.94-.74,13.51-10.3,22.02,1.7.69.98,1.46,1.92,2.28,2.83.84.93,1.75,1.84,2.69,2.71.62.58.66,1.55.08,2.17-.44.47-1.1.61-1.66.4,0,0-.1-.04-.11-.04h0s-7.09-3.32-8.96-1.64c-.29.26-.45.76-.46,1.39,0,.55.11,1.16.36,1.8.26.66.68,1.34,1.28,2,1.8,2,5.14,3.66,10.56,3.72,2.13.02,4.12-.04,5.94-.16,1.79-.12,3.4-.3,4.84-.52.34-.05.67.01.95.16l7.77,4.13c.75.4,1.04,1.33.64,2.09-.15.29-.38.51-.65.65h-.02c-1.21.76-11.21,6.91-25.59,2.41-4.19-1.31-7.28-3.37-9.56-5.68-3.12-3.16-4.7-6.78-5.49-9.6-.3-1.07-.48-2.13-.64-3.13-.44-2.72-.8-4.92-5.27-4.62-.85.06-1.58-.59-1.64-1.43-.04-.55.22-1.05.63-1.35Z"/><path class="cls-7" d="m65.75,47.53c-1.39.92-2.7,1.73-3.88,2.43l2.57.86c6.59-2.28,12.19-6.39,15.27-8.95l-5.64-.61c-2.83,2.44-5.72,4.54-8.32,6.26m-8.37,1.45c1.63-.89,3.99-2.24,6.67-4.02,2.67-1.77,5.64-3.94,8.51-6.45.34-.29.76-.42,1.17-.37h0s9.75,1.04,9.75,1.04c.85.09,1.46.85,1.37,1.69-.04.39-.22.73-.49.97-.6.59-8.88,8.58-19.42,12.06-.37.12-.76.1-1.09-.05l-6.21-2.07c-.81-.27-1.24-1.14-.98-1.94.13-.39.39-.69.72-.87Z"/><polygon class="cls-7" points="48.67 62.04 48.38 65.81 48.27 66.28 45.65 72.69 42.8 71.52 45.33 65.35 45.59 61.82 48.67 62.04"/><polygon class="cls-7" points="40.71 61.22 39.23 65.01 38.98 65.42 34.59 70.77 32.21 68.82 36.45 63.67 37.85 60.1 40.71 61.22"/><path class="cls-5" d="m57.61,51.78l-11.22-5.1s-.03-.01-.05-.02c0,0-.1-.04-.11-.05h0s-7.83-2.2-9.7-.52c-.29.26-.45.76-.46,1.39,0,.55-1,1.46-.75,2.1.26.66.82,1.21,1.41,1.87,1.8,2,6.15,4.33,11.57,4.4,2.13.02,4.76.03,6.58-.1,1.79-.12,2.66-.3,4.1-.52.31-.05,2.89-1.38,4.05-1.64l-5.41-1.8s-.01,0-.02,0"/><path class="cls-6" d="m36.81,45.9h0c-.17.15-.32.29-.47.43-.17.28-.26.68-.27,1.15,0,.55.11,1.16.36,1.8.26.66.68,1.34,1.28,2,1.8,2,5.14,3.66,10.56,3.72,2.13.02,4.12-.04,5.94-.16,1.79-.12,3.4-.3,4.84-.52.06,0,.12-.01.17-.02,1.47-.22,2.74-.47,3.81-.72h0s0,0,0,0c-6.06-1.7-27.68-3.06-26.23-7.69"/><path class="cls-3" d="m48.32,58.08s-.05,0-.07,0c-2.12-.02-3.99-.27-5.62-.68h0s4.07,2.18,3.95,4.32c.6.12,1.19.22,1.76.3l.33.02v.02c6.91.9,12.2-.78,15.09-2.08l-4.76-2.53c-1.37.19-2.9.35-4.58.47-1.83.12-3.86.19-6.1.17"/><path class="cls-7" d="m34.47,43.81c3.26-2.93,11.57.79,12.26,1.11l21.75,7.25c.42.12.79.42.99.85.35.78,0,1.68-.78,2.03-.02,0-6.98,3.19-20.44,3.03-6.44-.07-10.53-2.19-12.83-4.74-.84-.93-1.45-1.94-1.84-2.93-.41-1.02-.59-2.03-.58-2.95.02-1.51.55-2.82,1.47-3.65m11.02,3.93s-7.09-3.32-8.96-1.64c-.29.26-.45.76-.46,1.39,0,.55.11,1.16.36,1.8.26.66.68,1.34,1.28,2,1.8,2,5.14,3.66,10.56,3.72,6.67.08,11.58-.68,14.77-1.42l-17.39-5.79c-.06-.02-.11-.04-.16-.06h0Z"/></svg>