<?xml version="1.0" encoding="UTF-8"?><svg id="Layer_1" xmlns="http://www.w3.org/2000/svg" viewBox="0 0 578.12 261.75"><defs><style>.cls-1{fill:#3a1c0d;}.cls-1,.cls-2,.cls-3,.cls-4,.cls-5,.cls-6{stroke-width:0px;}.cls-2{fill:#5eab08;}.cls-3{fill:#f28a06;}.cls-4{fill:#44936f;}.cls-5{fill:#3b1d0e;}.cls-6{fill:#bdd000;}</style></defs><path class="cls-5" d="m407.68,171.81c.85-1.01,1.59-1.96,2.4-2.85,3.06-3.37,6.67-5.82,11.26-6.53,2.78-.43,5.53-.27,8.15.87,4.28,1.87,6.82,5.03,7.19,9.78.14,1.81.23,3.61.18,5.43-.16,5.84-.3,11.67-.44,17.51-.04,1.81-.01,3.62.23,5.42.25,1.9,1.27,3,3.1,3.42.49.11.99.19,1.47.36.93.32,1.34.89,1.26,1.65-.07.7-.51,1.09-1.51,1.19-.7.07-1.41,0-2.11-.03-3.77-.17-7.52-.71-11.31-.4-2.31.19-4.6.55-6.92.49-.56-.01-1.11-.06-1.64-.22-.47-.15-.76-.47-.84-.96-.09-.55.09-1.01.57-1.29.3-.18.63-.3.97-.42.28-.1.58-.15.88-.21,1.93-.38,2.91-1.55,3.13-3.52.21-1.9.4-3.81.47-5.72.23-6.59.58-13.18.15-19.77-.09-1.46-.29-2.91-.65-4.32-.93-3.58-4.02-5.11-7.49-3.74-1.54.61-2.73,1.68-3.78,2.93-2.46,2.92-3.91,6.31-4.67,10.01-1.29,6.26-1.48,12.58-.9,18.93.08.89.36,1.77.57,2.65.31,1.32,1.18,2.06,2.47,2.34.64.14,1.29.24,1.92.41.7.19,1.13.63,1.13,1.4,0,.79-.43,1.17-1.16,1.35-.75.18-1.5.16-2.25.07-4.26-.49-8.53-.65-12.82-.43-2.06.1-4.12.26-6.18.43-.61.05-1.2.05-1.79-.12-.67-.19-1.02-.59-1.05-1.29-.03-.7.28-1.18.93-1.38.57-.18,1.17-.28,1.77-.39,2.26-.43,2.98-1.15,3.45-3.39.56-2.67.71-5.39.82-8.1.26-6.29.41-12.58.08-18.87-.07-1.36-.19-2.71-.33-4.06-.24-2.31-1.47-3.9-3.59-4.83-.78-.34-1.61-.59-2.25-1.2-.53-.51-.52-.75.06-1.19.29-.22.61-.32.96-.41.74-.18,1.49-.19,2.25-.19,4.13,0,8.26-.04,12.36-.61.91-.13,1.23.21,1.51.99.88,2.43,1.43,4.92,1.71,7.48.04.38-.07.8.3,1.31Z"/><path class="cls-5" d="m270.13,182.74c0-3.38,0-8.16,0-12.94,0-1.12-.02-1.13-1.17-1.15-1.46-.03-2.92.02-4.38-.08-2.49-.17-2.75-.67-2.01-3.03.45-1.43,1.28-2.21,2.8-2.28,1.21-.05,2.41-.15,3.61-.26,1.13-.1,1.15-.12,1.16-1.21.01-2.32.22-4.62.64-6.9.31-1.69.72-3.34,1.35-4.94,2.42-6.18,6.93-10.15,13.23-12.01,4.86-1.43,9.82-1.51,14.78-.42,2.17.47,4.03,1.52,5.53,3.18.54.6,1.01,1.26,1.32,2.01,1.26,3.04-.56,6.17-3.84,6.6-1.95.25-3.69-.21-5.23-1.44-1.24-.98-2.21-2.19-3.05-3.52-.45-.72-.89-1.46-1.39-2.15-1.89-2.62-5.22-2.91-7.58-.67-1.05,1-1.7,2.23-2.1,3.61-.51,1.75-.72,3.55-.87,5.35-.3,3.76-.4,7.54-.34,11.31.02,1.11.03,1.13,1.19,1.13,2.42-.01,4.83.1,7.24.24.76.04,1.5.17,2.22.42.6.21.9.6.62,1.28-.3.74-.56,1.51-.82,2.27-.34.99-1.05,1.39-2.08,1.4-2.16.01-4.33.06-6.49.09-.35,0-.71.04-1.06,0-.69-.07-.89.29-.83.9.02.2,0,.4,0,.6-.06,7.5-.12,15-.17,22.5-.01,2.26.08,4.52.42,6.77.46,3.07,2.21,4.85,5.2,5.49.49.11.99.18,1.48.29.44.1.89.21,1.29.39.54.24.89.65.81,1.31-.08.58-.48.86-.99,1.01-.99.28-1.99.23-3,.14-4.77-.41-9.54-.67-14.33-.41-2.31.12-4.62.28-6.93.43-.75.05-1.5.12-2.25-.08-.68-.18-1.02-.62-1.04-1.3-.01-.62.28-1.06.88-1.26.86-.28,1.72-.56,2.59-.81,1.79-.53,2.79-1.71,2.97-3.57.11-1.15.29-2.3.32-3.45.11-4.48.17-8.96.27-14.84Z"/><path class="cls-5" d="m221.42,136.9c.22.62.13,1.13.14,1.63.08,17.91.04,35.82.32,53.73.05,3.02.17,6.03.56,9.03.28,2.23,1.32,3.28,3.56,3.6.65.09,1.3.14,1.95.22.3.03.6.05.9.1,1.15.23,1.74.7,1.73,1.38-.01.83-.73,1.48-1.95,1.47-1.56,0-3.11-.18-4.67-.28-6.34-.41-12.67-.39-19,.22-.86.08-1.7.15-2.55-.07-.65-.17-1.09-.52-1.1-1.24,0-.65.4-1,.95-1.22.52-.21,1.06-.31,1.62-.32.96-.02,1.91-.17,2.82-.44,1.98-.59,2.93-1.74,3.06-3.81.12-2.01.25-4.02.22-6.03-.21-12.83-.23-25.66-.09-38.49.03-2.81-.12-5.63-.37-8.44-.23-2.55-1.45-4.08-3.89-4.74-.87-.24-1.75-.45-2.64-.6-.69-.11-1.4-.26-1.98-.69-.84-.62-.73-1.61.23-2.02.51-.22,1.07-.26,1.62-.32,4.75-.47,9.52-.88,14.21-1.79,1.43-.28,2.85-.6,4.35-.91Z"/><path class="cls-5" d="m542.82,198.39c0-1.76-.01-3.52,0-5.28,0-.5.04-1.01.16-1.49.29-1.1,1.19-1.36,2.05-.6.73.65,1.16,1.52,1.55,2.39.68,1.52,1.4,3.01,2.27,4.42,1.18,1.89,2.55,3.62,4.36,4.96,2.87,2.12,6.05,2.91,9.55,2.07,3.55-.86,5.38-3.84,4.47-7.15-.36-1.32-1.18-2.31-2.24-3.13-1.72-1.33-3.62-2.36-5.55-3.33-2.6-1.32-5.22-2.61-7.71-4.13-1.33-.81-2.6-1.72-3.84-2.66-5.67-4.27-5.3-13.19-.96-17.45,2.93-2.88,6.47-4.35,10.51-4.69,3.65-.31,7.11.39,10.4,1.95.64.3,1.25.64,1.88.96,1.43.73,1.67.64,2.4-.81.13-.27.28-.53.46-.77.3-.4.71-.53,1.2-.47.55.06.76.45.85.92.12.59.2,1.19.28,1.79.38,3.05.72,6.09.76,9.17,0,.3.02.6,0,.91-.04.71-.08,1.49-.91,1.72-.82.23-1.3-.37-1.75-.93-.51-.63-.83-1.37-1.17-2.1-.75-1.6-1.64-3.12-2.76-4.49-2.68-3.29-6.11-5-10.4-4.81-1.92.09-3.65.7-4.99,2.15-1.35,1.46-1.47,3.17-.34,4.81.67.97,1.6,1.66,2.58,2.29,2.25,1.44,4.64,2.61,7.06,3.73,2.69,1.26,5.37,2.51,8,3.88,4.02,2.1,6.14,5.52,7.01,9.83.35,1.74-.21,3.4-.69,5.03-1.74,5.98-7.23,10.48-13.51,11.15-5.14.55-10.03-.14-14.49-2.96-.17-.11-.35-.2-.53-.29-1.49-.75-1.81-.64-2.55.84-.23.45-.44.91-.82,1.25-.39.35-.82.59-1.37.38-.48-.19-.67-.57-.71-1.06-.09-1-.24-2-.26-3.01-.04-1.66-.01-3.32-.01-4.98-.08,0-.16,0-.24,0Z"/><path class="cls-5" d="m367.82,171.77c.5-.41.65-.9.9-1.31,1.12-1.87,2.38-3.62,4.01-5.07,3.04-2.7,6.57-3.88,10.6-3.08,4.54.89,7.69,5.06,6.22,10.07-.59,2.01-3.17,4.44-6,4.16-1.27-.13-2.33-.56-3.19-1.49-.79-.85-1.39-1.84-1.98-2.84-.44-.73-.87-1.48-1.39-2.15-1.23-1.54-2.35-1.63-3.82-.28-1.5,1.38-2.6,3.05-3.28,4.99-.63,1.82-.96,3.7-1.14,5.6-.54,5.62-.4,11.26-.15,16.89.07,1.56.1,3.11.37,4.66.33,1.9,1.09,2.69,3.03,2.96.6.08,1.21.07,1.81.14.55.06,1.11.12,1.63.28.63.2.99.67.96,1.37-.03.65-.44,1.01-1,1.18-.87.27-1.78.3-2.69.23-.85-.06-1.71-.11-2.56-.21-5.98-.66-11.96-.31-17.93.18-.71.06-1.41.03-2.09-.17-.66-.19-.99-.68-1.01-1.34-.02-.64.38-1.03.93-1.24.32-.13.68-.16,1.03-.21.7-.09,1.41-.13,2.1-.25,1.73-.3,2.55-1.12,2.84-2.85.12-.74.23-1.5.23-2.25.04-5.84.25-11.67.12-17.51-.09-3.87-.3-7.74-.64-11.6-.2-2.35-1.52-3.76-3.86-4.11-.8-.12-1.6-.21-2.39-.35-.6-.1-1-.43-1.06-1.09-.06-.7.23-1.14.86-1.42.38-.17.78-.21,1.18-.22,5.28-.17,10.54-.73,15.79-1.23,1.02-.1,1.05-.09,1.1.98.1,2.31.16,4.63.24,6.94.02.5-.05,1.01.24,1.64Z"/><path class="cls-5" d="m464.26,181.43c.11,5.48,0,10.97-.18,16.45-.04,1.32.07,2.6.36,3.89.3,1.36,1.12,2.21,2.37,2.71.89.36,1.85.48,2.79.65.55.1,1.08.25,1.56.53.48.29.7.7.62,1.27-.07.51-.41.8-.86.95-.88.29-1.79.24-2.69.18-3.57-.22-7.13-.47-10.7-.51-3.47-.04-6.95-.07-10.39.5-.71.12-1.41.05-2.08-.18-.45-.15-.77-.46-.84-.97-.08-.56.12-.99.6-1.28.43-.26.91-.42,1.42-.48.75-.09,1.5-.17,2.24-.32,2.22-.45,3.11-1.42,3.31-3.66.14-1.6.26-3.21.28-4.82.08-8.2-.01-16.4-.55-24.59-.06-.95-.21-1.9-.35-2.84-.16-1.17-.8-1.93-1.96-2.21-.73-.18-1.47-.33-2.2-.48-.49-.1-.99-.15-1.48-.27-.65-.17-1.28-.43-1.31-1.24-.02-.83.59-1.1,1.25-1.27.39-.1.78-.19,1.18-.22,4.26-.33,8.53-.64,12.79-.95,1.2-.09,2.41-.15,3.61-.28.73-.08.97.16.98.89.06,3.62.18,7.24.24,10.86.04,2.57,0,5.13,0,7.7Z"/><path class="cls-5" d="m252.34,181.34c.04,5.39-.02,10.77-.16,16.15-.03,1.26,0,2.51.16,3.76.23,1.74,1.15,2.86,2.83,3.34.82.23,1.66.4,2.5.55.5.09.98.23,1.42.48.47.27.78.66.71,1.23-.07.55-.41.89-.95,1.05-.89.27-1.79.22-2.7.16-4.12-.27-8.24-.52-12.37-.53-2.87-.01-5.74.1-8.58.51-.61.09-1.2.08-1.8-.06-.65-.14-1.15-.44-1.24-1.14-.1-.79.42-1.19,1.08-1.43.28-.1.57-.19.87-.24.54-.1,1.09-.18,1.64-.25,3.2-.42,3.99-1.31,4.23-4.56.27-3.62.27-7.24.22-10.86-.08-5.84-.12-11.67-.54-17.5-.07-1-.23-2-.34-3-.15-1.33-.94-2.08-2.18-2.38-.83-.2-1.68-.3-2.52-.44-.64-.11-1.3-.18-1.86-.56-.83-.56-.82-1.42.04-1.93.57-.34,1.22-.45,1.88-.49,4.27-.31,8.53-.62,12.8-.94,1.05-.08,2.11-.18,3.16-.24,1.73-.11,1.48-.19,1.5,1.34.08,5.38.14,10.77.2,16.15,0,.6,0,1.21,0,1.81Z"/><path class="cls-2" d="m201.88,248c.31-.27.19-.65.19-.97.02-4.43.03-8.86.02-13.28,0-1.05-.09-2.11-.2-3.16-.28-2.65-1.49-4.08-4.07-4.81-.63-.18-1.28-.24-1.92-.39-.5-.12-.8-.44-.73-.98.06-.49.42-.66.85-.7.25-.02.5-.01.75.01,4.02.39,8.04.34,12.06,0,.4-.03.81-.03,1.2.02.37.04.67.25.73.66.06.48-.22.76-.64.9-.28.09-.59.11-.88.17-3.02.58-4.52,2.18-4.63,5.25-.11,2.91-.04,5.84-.02,8.75.05,6.54.07,13.08-.12,19.62-.01.5,0,1.01-.08,1.51-.17,1.14-.88,1.4-1.8.67-.31-.25-.58-.56-.87-.84-4.89-4.79-9.41-9.93-13.95-15.06-2.83-3.2-5.62-6.45-8.43-9.67-.16-.19-.34-.36-.49-.53-.47.13-.33.49-.34.75-.02,5.79-.2,11.57.1,17.36.02.4.04.81.08,1.2.34,3.01,1.66,4.47,4.65,5.14.44.1.89.13,1.34.21.4.07.61.32.61.74,0,.41-.23.68-.61.75-.34.07-.7.08-1.05.04-4.17-.42-8.34-.33-12.52,0-.35.03-.71.03-1.05-.06-.36-.09-.59-.38-.57-.79,0-.34.21-.55.53-.65.53-.18,1.07-.24,1.63-.31,2.46-.28,3.47-1.2,4.01-3.58.21-.94.32-1.89.32-2.84-.02-6.14-.03-12.28-.09-18.42-.02-2.38-.78-4.54-2.23-6.45-1.07-1.41-2.4-2.43-4.14-2.84-.1-.02-.2-.03-.3-.06-.48-.16-1.04-.32-.98-.96.06-.7.6-.84,1.21-.83,3.02.06,6.04.15,9.06.16.84,0,1.26.49,1.73,1.02,3.79,4.24,7.57,8.49,11.37,12.72,3.09,3.44,6.27,6.81,9.57,10.06.2.2.35.49.72.46Z"/><path class="cls-4" d="m132.63,254.4c4.36-.02,8.48.09,12.59-.1,1.66-.08,3.32-.17,4.97-.29.68-.05.93.24.84.88-.28,1.9-.34,3.81-.03,5.71.08.51-.12.77-.63.78-.3,0-.6,0-.91,0-7.8-.12-15.6-.08-23.4,0-.35,0-.71-.01-1.06.01-.58.04-.83-.21-.79-.79.03-.4.04-.81,0-1.21-.11-.88.27-1.48.89-2.1,3.75-3.72,7.65-7.3,11.09-11.32,1.51-1.76,2.93-3.58,3.87-5.73,1.07-2.44,1.63-4.95,1.13-7.64-.56-3.07-2.73-4.97-5.84-5.08-1.23-.04-2.41.16-3.52.68-1.58.73-2.78,1.77-3.04,3.65-.13.94-.4,1.87-.65,2.79-.17.61-1.92.96-2.31.48-.24-.31-.09-.68-.05-1.02.23-1.85.48-3.69.72-5.53.06-.5.19-1.01.13-1.5-.18-1.51.58-2.42,1.74-3.23,4.81-3.35,9.96-3.67,15.18-1.36,4.63,2.05,6.67,7.3,5.3,12.52-.75,2.85-2.31,5.22-4.25,7.38-3.26,3.64-6.86,6.94-10.45,10.25-.5.46-1.13.81-1.52,1.76Z"/><path class="cls-5" d="m539,154.86c.02,3.36-.77,6.54-2.08,9.54-.78,1.78-2.03,3.34-3.08,5-.28.45-.72.62-1.21.81-1.67.64-3.12.42-4.7-.48-12.91-7.34-16.19-24.39-6.84-35.92,1.58-1.94,1.6-1.98,3.84-.89,9.17,4.45,13.67,11.9,14.07,21.95Z"/><path class="cls-2" d="m507.75,244.77c.17.13.36.28.56.42,2.09,1.45,3.56,3.35,4.44,5.75.71,1.94,1.34,3.9,1.86,5.89.54,2.09,1.85,3.01,3.91,3.05.2,0,.41,0,.6.04.45.08.73.33.69.82-.03.44-.34.6-.72.62-.4.02-.81.01-1.21-.02-2.51-.23-5.02-.42-7.53,0-.71.12-1.14-.18-1.48-.75-.6-1.01-.96-2.1-1.2-3.24-.29-1.38-.55-2.76-.97-4.11-.58-1.86-1.84-3.08-3.56-3.88-1.08-.5-2.71.45-2.73,1.64-.03,2.26,0,4.53.29,6.78.12.93.6,1.46,1.48,1.67.49.11.99.18,1.47.3.48.12.83.41.74.97-.08.49-.46.62-.89.65-.35.02-.71.04-1.06,0-3.42-.37-6.83-.27-10.25,0-.5.04-1.01.09-1.5-.08-.3-.1-.53-.3-.54-.65-.01-.34.18-.58.48-.69.33-.12.68-.17,1.02-.26,1.64-.42,2.02-.82,2.06-2.48.07-2.56.1-5.13.09-7.7-.03-6.39-.09-12.78-.15-19.17,0-.7-.04-1.41-.11-2.11-.2-2.04-.6-2.5-2.52-3.04-.29-.08-.58-.15-.86-.26-.25-.1-.41-.31-.42-.57-.01-.35.23-.55.53-.65.24-.08.49-.1.74-.13,2.7-.25,5.41-.48,8.1-.86,1.15-.16,1.28-.47,1.28,1.2-.01,7.45,0,14.89,0,22.34v1.76c.85-.19,1.42-.71,1.99-1.14,1.88-1.44,3.63-3.04,5.14-4.87,1.83-2.22,1.48-3.14-1.3-3.63-.34-.06-.69-.14-1.02-.26-.29-.11-.53-.34-.46-.69.07-.33.33-.5.66-.51.45-.02.91-.05,1.36,0,2.91.28,5.82.37,8.74,0,.4-.05.8-.02,1.21,0,.33.02.56.22.65.54.1.39-.02.72-.38.89-.36.17-.75.32-1.14.36-1.68.17-3.09.92-4.27,2.06-1.3,1.26-2.5,2.61-3.83,4.02Z"/><path class="cls-2" d="m321.79,241.3c.93-.92,1.74-1.88,2.71-2.68,1.85-1.53,3.93-2.4,6.37-2.34,3.81.08,6.52,2.56,6.69,6.35.18,4.02-.02,8.05-.14,12.08-.03,1.01,0,2.01.11,3.01.11,1.02.59,1.69,1.61,1.93.1.02.19.07.29.09.57.15,1.35.2,1.19,1.04-.15.82-.94.58-1.51.58-.85,0-1.71-.03-2.56-.12-1.66-.18-3.31-.18-4.97.02-1.04.13-2.11.09-3.17.1-.43,0-.82-.17-.87-.66-.05-.48.27-.79.7-.84,2.06-.25,2.3-1.72,2.42-3.38.3-3.92.3-7.85.26-11.77-.01-1.06-.15-2.11-.41-3.14-.55-2.17-2.47-2.99-4.46-1.95-.78.4-1.37,1.02-1.9,1.69-1.39,1.74-2.1,3.77-2.49,5.92-.57,3.14-.57,6.31-.36,9.48.02.35.14.69.2,1.04.17,1.05.69,1.73,1.82,1.9.55.09,1.36.11,1.28.97-.09.94-.93.76-1.54.74-1.36-.06-2.71-.22-4.07-.27-1.86-.06-3.72.06-5.58.21-.55.05-1.11.05-1.66.06-.52,0-.92-.21-.95-.75-.03-.46.3-.72.75-.8.05,0,.1-.01.15-.03,2.4-.69,2.44-.68,2.68-3.1.51-4.97.51-9.95.23-14.93-.09-1.72-.76-2.98-2.53-3.51-.45-.13-1.1-.34-.96-.96.13-.57.78-.58,1.27-.6,1.31-.05,2.62-.04,3.93-.09,1-.04,2.01-.13,3.01-.23,1.2-.11,1.21-.13,1.59,1.04.4,1.24.68,2.51.89,3.88Z"/><path class="cls-4" d="m108.53,261.39c-3.32,0-6.65,0-9.97,0-1.13,0-1.72-1.03-1.16-2,.24-.42.68-.37,1.07-.42,1.4-.16,2.81-.26,4.2-.48,1.58-.25,1.77-.54,1.99-2.15.26-1.95.24-3.92.29-5.88.17-6.19.3-12.38.19-18.57-.02-1.06-.05-2.11-.14-3.17-.08-.97-.38-1.18-1.27-.81-1.44.6-2.84,1.28-4.26,1.93-.96.44-1.91.9-2.88,1.32-.89.39-.93.36-1.14-.66-.14-.69-.23-1.39-.4-2.07-.17-.67,0-1.06.7-1.23.73-.19,1.45-.42,2.17-.64,4.66-1.44,9.3-2.94,13.83-4.76.23-.09.46-.21.7-.26.69-.14,1.04.15,1.01.88-.05,1.26-.14,2.51-.21,3.77-.48,9.15-.54,18.31-.43,27.47.01,1,.12,2.01.23,3.01.15,1.43.51,1.8,1.98,1.98,1.25.15,2.5.23,3.76.36.99.1,1.53,1.29.96,2.1-.32.46-.82.29-1.25.29-3.02-.01-6.04-.05-9.06-.08-.3,0-.6,0-.91,0,0,.03,0,.05,0,.08Z"/><path class="cls-2" d="m381.07,222.59c0,.83,0,1.43,0,2.03.03,8.7.04,17.4.1,26.11.01,2.11.13,4.22.27,6.33.13,2,.7,2.53,2.67,2.75.35.04.71.04,1.05.12.39.1.81.25.74.78-.07.48-.45.66-.88.66-.8,0-1.61-.01-2.41-.09-1.71-.17-3.42-.19-5.13-.18-1.46,0-2.92.03-4.37.19-.55.06-1.1.09-1.66.09-.6,0-1.39.09-1.43-.71-.05-.79.74-.8,1.34-.87.1-.01.2,0,.3-.02,2.39-.33,2.92-.89,3.01-3.29.05-1.16.05-2.31.03-3.47-.07-6.19-.13-12.37-.02-18.56.03-1.86-.02-3.72-.22-5.57-.21-1.88-.64-2.4-2.5-2.9-.53-.14-1.08-.22-1.61-.38-.38-.11-.8-.27-.78-.79.02-.53.45-.61.86-.66,1.15-.13,2.3-.26,3.45-.38,2.35-.25,4.67-.67,7.19-1.19Z"/><path class="cls-2" d="m523.21,255.97c0-.77-.02-1.93.01-3.08.01-.39.1-.84.6-.93.39-.06.68.19.86.5.31.52.6,1.04.86,1.59.69,1.47,1.5,2.85,2.68,3.98,1.47,1.41,3.2,2.04,5.23,1.83,1.62-.17,2.79-1.08,3.11-2.43.37-1.52-.28-2.64-1.47-3.52-1.18-.87-2.49-1.51-3.79-2.17-1.66-.84-3.25-1.8-4.81-2.82-3.89-2.51-3.82-8.75.5-11.27,2.9-1.69,5.91-1.79,8.99-.61.51.2,1,.47,1.5.72,1.04.53,1.05.54,1.86-.45.25-.3.51-.47.9-.4.45.08.51.46.56.8.3,2.09.55,4.19.47,6.31-.01.31-.06.62-.38.76-.38.17-.68-.04-.96-.25-.43-.31-.62-.78-.83-1.24-.54-1.14-1.16-2.23-2.05-3.15-1.45-1.51-3.21-2.21-5.3-2.07-.45.03-.89.11-1.32.29-2.23.93-2.53,2.79-.64,4.29,1.27,1.01,2.75,1.66,4.2,2.36,1.77.85,3.54,1.68,5.26,2.63,2.57,1.41,3.78,4.61,3,7.69-.93,3.67-4.81,6.13-8.18,6.33-2.57.15-5-.26-7.24-1.62-1.09-.66-1.13-.61-1.88.4-.25.33-.48.69-.95.6-.6-.11-.56-.63-.59-1.07-.08-1.21-.13-2.41-.22-4.01Z"/><path class="cls-2" d="m476.6,236.29c.09,1.73.18,3.32.27,5.03.48-.24.6-.64.8-.95.78-1.18,1.66-2.28,2.88-3.04,1.76-1.1,3.66-1.42,5.63-.71,2.13.76,3.22,3.07,2.5,5.15-.43,1.24-1.27,2.04-2.61,2.22-1.23.17-2.15-.35-2.82-1.36-.39-.59-.73-1.21-1.15-1.77-.87-1.18-1.53-1.21-2.56-.13-1.24,1.29-1.8,2.9-2.01,4.63-.51,4.16-.39,8.34-.03,12.51.1,1.2.48,1.57,1.65,1.81.44.09.9.1,1.35.14.53.05,1.09.19,1.05.83-.04.62-.63.71-1.15.72-.4.01-.81.04-1.21,0-3.52-.41-7.03-.29-10.55,0-.35.03-.71.03-1.05,0-.45-.05-.76-.28-.75-.77,0-.42.28-.63.66-.7.34-.07.7-.07,1.05-.13,1.43-.25,1.85-.73,1.99-2.21,0-.05,0-.1,0-.15.07-5.38.31-10.77-.24-16.14-.19-1.84-.58-2.26-2.48-2.62-.2-.04-.39-.1-.59-.13-.5-.08-.91-.29-.85-.85.06-.52.5-.72.99-.75,1.21-.08,2.41-.13,3.62-.21,1.8-.12,3.6-.25,5.6-.39Z"/><path class="cls-2" d="m244.77,247.27c0-2.11,0-4.22,0-6.34,0-1.08,0-1.08-1.05-1.14-.85-.05-1.71-.09-2.56-.15-.3-.02-.6-.06-.88-.16-.28-.1-.55-.29-.55-.64,0-.28.18-.48.41-.59.36-.17.74-.33,1.12-.42,3.68-.9,6.26-3.08,7.77-6.55.28-.64.59-1.28.89-1.91.16-.34.44-.6.82-.54.44.07.67.43.71.87.03.35.03.7.03,1.06,0,1.71.02,3.42,0,5.13,0,.66.25.87.89.85,1.41-.05,2.82-.05,4.23-.06.45,0,.94-.07,1.35.07.48.17,1.37-.29,1.38.72.01,1.12-.51,1.78-1.48,1.85-1.76.14-3.51.23-5.27.37-1.06.09-1.07.11-1.1,1.15-.1,3.62-.2,7.24-.29,10.86-.03,1.31,0,2.62.21,3.91.42,2.59,2.43,3.92,4.94,3.19.81-.24,1.57-.66,2.36-.98.4-.16.88-.48,1.2.05.29.48-.11.85-.44,1.16-.25.24-.53.47-.82.67-2.97,2.08-6.22,2.43-9.64,1.46-2.53-.72-3.76-2.56-4.15-5.04-.18-1.14-.32-2.29-.31-3.45.02-1.81,0-3.62,0-5.43.07,0,.15,0,.22,0Z"/><path class="cls-2" d="m273.23,247.07c0,2.92,0,5.83,0,8.75,0,.45-.02.91.02,1.36.12,1.52.53,2.01,2.01,2.42.58.16,1.17.27,1.75.44.31.09.51.33.48.68-.03.35-.27.55-.59.59-.45.06-.9.07-1.35.06-1.91-.08-3.82-.2-5.73-.26-1.71-.06-3.42-.05-5.12.2-.44.07-.9.06-1.35.06-.42,0-.85-.13-.92-.6-.09-.59.41-.74.84-.87.24-.07.5-.06.75-.11,2.1-.36,2.51-.75,2.56-2.82.12-5.28.19-10.56-.25-15.82-.18-2.11-.36-2.3-2.5-2.68-.15-.03-.3-.02-.45-.05-.46-.09-.99-.22-.95-.77.04-.52.58-.65,1.04-.7,1.1-.11,2.2-.19,3.31-.27,1.76-.12,3.51-.24,5.27-.34,1.16-.06,1.18-.05,1.19,1.09.01,3.22,0,6.43,0,9.65,0,0,0,0,0,0Z"/><path class="cls-5" d="m243.89,152.02c-4.7.02-7.56-4.21-7.51-7.49.05-3.62,3.11-7.47,7.58-7.4,4.15.06,7.47,3.33,7.46,7.47-.02,4.1-3.41,7.45-7.52,7.42Z"/><path class="cls-5" d="m448.36,144.52c.02-4.19,3.29-7.41,7.51-7.38,4.1.03,7.37,3.3,7.38,7.39.02,4.11-3.35,7.49-7.47,7.49-4.15,0-7.44-3.32-7.42-7.5Z"/><path class="cls-2" d="m268.78,222.54c2.25.04,4.1,1.95,4.04,4.19-.06,2.25-2.02,4.1-4.22,4.01-2.21-.09-3.94-1.9-3.93-4.13,0-2.3,1.84-4.11,4.11-4.08Z"/><path class="cls-1" d="m193.43,151.95c-1.02-4.18-2.75-8.01-5.73-11.15-5.75-6.06-12.74-8.77-21.12-7.51-.82.12-1.61.48-2.48.45.02-.55.41-.84.67-1.2,4.03-5.6,5.48-11.81,4.23-18.58-1.14-6.16-4.33-11.07-9.34-14.83-.47-.35-.77-.25-1.19.02-7.61,4.87-11.74,11.76-11.78,20.83-.03,6.31,2.33,11.77,6.67,16.36.41.44.85.83.94,1.49.15,1.04.36,2.08.58,3.33-3.55.18-6.91.43-10.27.5-1.65.03-2.8.61-3.87,1.87-6,7.03-12.65,13.38-20,18.99-.63.48-1.21.73-2.05.58-5.74-1.01-11.5-1.97-17.25-2.93-.56-.09-1.05-.28-1.52-.61-2.97-2.09-5.81-4.34-8.35-6.94-1.41-1.44-2.9-2.8-4.58-3.92-4.34-2.89-9.11-4.3-14.32-3.56-7.45,1.06-13.36,5.04-18.51,10.29-.8.81-.87,1.99-.35,2.94.52.94,1.56,1.47,2.67,1.32.6-.08,1.18-.25,1.78-.34,3.77-.59,5.97.61,7.41,4.11.55,1.35.97,2.75,1.45,4.12,3.07,8.73,8.47,15.59,16.55,20.2,1.39.79,2.9,1.39,4.37,2.03.54.24.74.51.61,1.13-.33,1.53-.63,3.05-1.57,4.36-.47.65-.83,1.38-1.24,2.07-1.17,1.98-1.17,2.01-3.4,1.25-14.87-5.06-26.92-14.08-36.61-26.31-4.49-5.67-7.95-11.99-10.66-18.69-6.93-17.17-9.91-34.96-8.26-53.47.6-6.74,1.81-13.35,4-19.76,3.4-9.95,8.69-18.66,16.97-25.36,11.86-9.6,25.33-12.47,40.13-9.5,8.94,1.79,16.82,5.96,24.07,11.39.14.11.35.19.29.51-.35.21-.73.45-1.11.69-7.27,4.62-11.03,11.33-11.35,19.84-.26,7.01,2.49,12.93,7.41,17.88.4.41.72.4,1.19.17,6.02-2.89,10.46-7.29,12.79-13.61,1.46-3.96,2.2-8.03,1.23-12.29-.38-1.66-.89-3.28-1.39-5.17,1.48,1.27,2.67,2.46,3.78,3.73,2.62,3,5.06,6.13,7.32,9.41.8,1.16,1.63,2.3,2.64,3.3.54.54,1.11,1.04,1.82,1.32,1.56.61,2.87-.35,2.74-1.98-.13-1.56-.46-3.08-.88-4.58-2.49-8.75-4.97-17.5-7.46-26.26-.11-.37-.36-.73-.08-1.17.28.11.56.2.84.32,4.39,1.83,8.94,2.3,13.61,1.47,9.34-1.66,17.32-9.23,19.31-18.93.13-.61-.05-.91-.54-1.21-4.27-2.6-8.88-4.15-13.89-3.93-9.62.42-16.67,4.99-21.08,13.58-.17.34-.18.81-.7.98-.42-1.44-.84-2.88-1.25-4.32-.36-1.26-.35-1.26.85-1.88,11.97-6.12,17.19-21.36,9.18-34.29-.29-.46-.54-.59-1.09-.48-6.12,1.21-11.28,4.15-15.01,9.12-5.71,7.62-6.41,15.95-2.56,24.64.37.83.4,1.45-.04,2.23-1.33,2.37-2.82,4.64-4.37,6.87-.74,1.06-.46,1-1.81.58-8.57-2.71-17.29-4.57-26.29-5.13-6.57-.4-13.09-.11-19.55,1.11-11.84,2.25-22.61,6.99-32.37,14.08-10.96,7.95-19.61,17.88-25.67,29.98C3.86,92.98,1.34,103.1.37,113.61c-.65,7.05-.43,14.08.54,21.08,1.47,10.66,4.13,20.97,8.84,30.73,8.41,17.41,21.13,30.5,38.65,38.74,14.92,7.02,30.59,9.68,47.02,7.43,10.04-1.38,19.49-4.51,28.27-9.52,9.43-5.38,17.35-12.54,23.77-21.32,4.49-6.15,7.55-13.03,10.36-20.05,1.48-3.69,2.09-7.51,2.13-11.46,0-.43,0-.87,0-1.42.78.34,1.13.88,1.55,1.36,8.01,9.08,21.25,10.81,31.39,4.12.56-.37.71-.7.55-1.34Zm-90.31,42.21c-.44,2.22-1.02,4.4-1.52,6.6-.13.58-.57.48-.94.48-1.76,0-3.52.03-5.28-.08-1.7-.11-3.41-.28-5.32-.68.43-.73.76-1.34,1.12-1.93,1.11-1.8,2.12-3.63,2.39-5.8.13-1.04.24-1.05,1.26-.85,2.37.48,4.75.81,7.17.97,1.1.07,1.33.25,1.12,1.27Zm3.97,6.45c.28-2.57,1.41-4.84,1.26-7.5,10.32-.54,19.96-3.27,28.55-9.21-7.89,9.14-17.82,14.62-29.81,16.71Zm33.48-21.05c-.27-1.69-1.41-2.26-2.71-2.68-1.91-.62-3.8-1.3-5.76-1.98.45-.55,1.07-.63,1.6-.88,1.69-.78,3.38-1.55,4.98-2.49,2.33-1.36,2.55-2.99.55-5.07,4.81-3.23,9.27-6.86,13.47-10.97-.5,5.03-6.55,17.04-12.14,24.06Z"/><path class="cls-5" d="m344.44,179.01c-1.65-7.61-6.59-12.55-13.77-15.17-6.3-2.3-12.78-2.28-19.09-.05-6.9,2.44-11.89,7.02-14.33,14.08-1.12,3.24-1.31,6.6-1.08,9.99.4,5.9,2.71,10.87,7.22,14.76,4.77,4.13,10.41,5.71,16.59,5.77,8.11,0,14.64-3.11,19.7-9.4,4.74-5.91,6.36-12.64,4.77-19.99Zm-14.7,17.3c-.49,1.86-1.15,3.65-2.23,5.25-3.11,4.61-9.24,4.9-12.69.53-2.22-2.81-3.46-6.09-4.12-9.6-.54-2.88-.72-5.79-.75-8.87.04-3.36.26-6.86,1.27-10.28.54-1.82,1.44-3.43,2.59-4.9,3.07-3.91,8.4-4.02,11.65-.28,1.07,1.23,1.82,2.65,2.43,4.14,1.71,4.19,2.59,8.55,2.75,13.06.14,3.68.05,7.34-.91,10.94Z"/><path class="cls-5" d="m519.47,204.04c-.85-.13-1.7.02-2.56.08-1.42.1-2.29-.44-2.85-1.74-.4-.94-.53-1.94-.62-2.94-.23-2.51-.33-5.02-.32-7.54.02-5.08.04-10.17.06-15.25,0-2.12-.11-4.22-.53-6.3-.44-2.15-1.59-3.78-3.35-5.01-1.58-1.1-3.28-1.97-5.15-2.44-5.32-1.34-10.66-1.25-16-.11-2.27.49-4.46,1.24-6.45,2.46-2.56,1.58-3.93,3.85-3.83,6.9.07,2.07,1.17,3.56,3.1,4.2,2.63.88,6.16.24,7.68-3.26.42-.98.65-2.01.88-3.04.23-1.04.55-2.04,1.07-2.97.43-.78,1.05-1.35,1.92-1.6,2.74-.78,6.37-.37,7.95,3.57.59,1.49.68,3.03.59,4.6-.2,3.52-1.83,6.11-5.05,7.62-1.78.83-3.62,1.49-5.46,2.16-2.74,1-5.51,1.95-8.03,3.42-4.36,2.54-6.63,6.35-6.49,11.45.13,4.99,3.35,9.02,8.01,10.05,2.04.45,4.1.4,6.14-.05,3.18-.7,5.87-2.31,8.34-4.35.46-.38.91-.75,1.56-1.29.08,1.12.27,1.96.51,2.78.42,1.41,1.34,2.32,2.74,2.76,1.17.37,2.37.48,3.58.46,3.99-.07,7.91-.72,11.77-1.7.43-.11.86-.29,1.26-.49.58-.29.98-.76.89-1.44-.1-.74-.73-.92-1.34-1.01Zm-18.7-10.1c-.38,2.65-1.19,5.09-3.4,6.83-.2.16-.4.31-.6.45-3.9,2.73-8.14,1.01-8.96-3.67-.28-1.59-.28-3.21,0-4.81.29-1.71,1.16-3.08,2.54-4.14,1.32-1.02,2.74-1.86,4.19-2.67,1.05-.58,2.1-1.18,3.14-1.78.99-.58,1.93-1.26,3.03-2.23.16,4.21.62,8.11.06,12.01Z"/><path class="cls-5" d="m199.09,204.06c-.8-.15-1.6-.07-2.41,0-2.11.2-3.06-.47-3.57-2.55-.39-1.57-.48-3.18-.54-4.79-.23-6.29-.07-12.58-.05-18.87,0-2.01-.05-4.02-.27-6.03-.35-3.18-1.81-5.57-4.63-7.16-1.68-.95-3.43-1.69-5.31-2.08-4.34-.91-8.7-.85-13.05-.14-3,.49-5.87,1.39-8.47,3-2.65,1.64-3.81,4.06-3.56,7.14.13,1.57.96,2.75,2.37,3.45,2.4,1.19,6.6,1.06,8.39-2.67.48-1.01.74-2.08.97-3.16.23-1.09.57-2.13,1.1-3.11.46-.84,1.14-1.43,2.06-1.66,3.04-.74,6.51-.15,7.97,4.04.54,1.55.53,3.17.37,4.78-.31,3.08-1.8,5.39-4.58,6.81-1.39.71-2.85,1.25-4.31,1.8-2.97,1.1-5.97,2.12-8.79,3.57-1.16.6-2.33,1.18-3.31,2.08-3.13,2.9-4.58,6.48-4.04,10.71.55,4.34,2.74,7.51,7.07,8.88,2.3.73,4.66.74,7.01.24,3.18-.67,5.89-2.27,8.37-4.3.5-.41.99-.82,1.54-1.27.22.94.4,1.76.62,2.56.5,1.86,1.78,2.86,3.64,3.14.99.15,2,.24,3.01.2,3.89-.15,7.7-.77,11.46-1.75.48-.12.98-.22,1.41-.52.47-.34.84-.77.75-1.38-.09-.65-.65-.87-1.21-.98Zm-18.96-9.49c-.38,2.39-1.24,4.55-3.21,6.12-.2.16-.39.32-.59.47-3.93,2.81-8.02,1.23-9.02-3.5-.34-1.64-.31-3.3-.03-4.94.28-1.66,1.11-2.99,2.43-4.03,1.11-.87,2.29-1.63,3.52-2.31,2.32-1.29,4.69-2.48,6.94-4.44.22,4.43.61,8.53-.05,12.64Z"/><path class="cls-2" d="m437.29,232.08c-.45-3.93-2.77-6.35-6.45-7.54-1.63-.53-3.32-.77-5.03-.95-3.32-.35-6.64-.1-8.97-.02-4.31.05-7.64.2-10.96.03-.4-.02-.81,0-1.2.08-.48.1-.85.41-.79.94.05.46.42.67.85.72.4.05.81.04,1.2.09,1.4.18,2.29.97,2.65,2.33.15.58.24,1.18.24,1.79-.01,7.3,0,14.6-.04,21.89,0,1.56-.1,3.12-.22,4.67-.18,2.43-.85,3.17-3.2,3.67-.25.05-.51.05-.74.13-.42.16-.93.31-.8.91.1.47.52.56.95.55.65-.01,1.31,0,1.96-.04,2.92-.15,5.83-.37,8.75-.17,1.66.12,3.32.15,4.98.2.4.01.81,0,1.2-.06.41-.07.81-.25.77-.76-.04-.49-.41-.66-.84-.7-.8-.07-1.61-.07-2.4-.27-1.17-.3-1.93-.97-2.25-2.18-.26-.99-.27-1.99-.28-3-.01-3.12,0-6.24.02-9.36,0-1.24.02-1.24,1.22-1.23,2.87.04,5.74.14,8.59-.26,2.11-.29,4.17-.74,6.02-1.82,3.71-2.16,5.23-5.46,4.75-9.66Zm-9.12,1.97c-.6,4.63-4.03,7.8-8.67,7.74-.65,0-1.31-.06-1.96-.04-.66.01-.85-.3-.84-.92.02-2.31,0-4.62,0-6.94,0-2.31.03-4.62-.02-6.93-.02-.78.27-1.1.99-1.17.7-.07,1.4-.19,2.1-.25,4.72-.43,9.23,2.02,8.4,8.52Z"/><path class="cls-2" d="m532.8,154.29c-.05,3.31-.69,6.08-2.07,8.64-.51.95-.56.94-1.43.3-4-2.93-6.37-6.83-7.16-11.75-.6-3.77.07-7.28,1.72-10.65.57-1.17.7-1.2,1.78-.4,3.67,2.72,5.91,6.36,6.82,10.82.23,1.13.43,2.27.34,3.03Z"/><path class="cls-2" d="m298.47,236.72c-1.72-.44-3.48-.53-5.24-.41-6.23.41-12.47,5.17-12.24,12.94,0,4.51,1.76,7.92,5.26,10.26,7.43,4.96,18,1.3,20.75-7.19,2.26-6.97-1.46-13.77-8.54-15.59Zm.73,18.56c-.2.84-.53,1.62-.97,2.36-1.76,2.94-5.33,3.08-7.34.28-.8-1.12-1.29-2.38-1.63-3.7-.53-2-.74-4.04-.67-6.05-.05-1.98.11-3.87.64-5.72.28-.97.67-1.89,1.29-2.7,1.67-2.19,4.55-2.3,6.38-.25.51.57.89,1.21,1.18,1.91,1.85,4.5,2.23,9.13,1.12,13.87Z"/><path class="cls-2" d="m368.29,259.6c-.07-.27-.3-.39-.54-.48-.49-.18-.99-.05-1.49-.04-1.03.02-1.49-.31-1.75-1.29-.23-.88-.33-1.78-.33-2.69,0-3.57-.01-7.14-.02-10.71,0-1.01-.07-2-.2-3.01-.22-1.7-1.11-2.86-2.57-3.67-.93-.52-1.9-.91-2.95-1.11-2.25-.44-4.49-.42-6.75-.08-1.61.24-3.17.61-4.58,1.42-1.5.86-2.41,2.11-2.29,3.93.07,1.17.7,1.96,1.83,2.29,1.77.52,3.64-.39,4.29-2.13.26-.7.38-1.46.61-2.17.24-.73.63-1.37,1.41-1.66,1.46-.53,3.14.03,3.98,1.34,1.47,2.3.58,5.82-1.84,7.08-.89.46-1.84.79-2.78,1.16-1.54.6-3.14,1.06-4.63,1.82-1.44.73-2.55,1.78-3.27,3.23-1.85,3.7.12,8.06,3.98,8.75,1.09.19,2.19.15,3.3-.1,1.98-.45,3.57-1.57,5.14-2.88.15.22.24.29.26.38.61,2.25,1.15,2.68,3.47,2.7,2.18.02,4.3-.39,6.4-.91.34-.08.67-.23.96-.41.26-.16.44-.42.35-.76Zm-11.06-4.93c-.41,1.69-1.4,2.88-3.06,3.45-1.35.47-2.5.05-3.27-1.12-1.42-2.17-.95-4.9,1.14-6.44,1.62-1.19,3.54-1.9,5.41-3.39.03,2.72.35,5.12-.22,7.5Z"/><path class="cls-2" d="m238.03,259.13c-.49-.18-.99-.07-1.5-.06-1.26.03-1.74-.32-1.98-1.57-.25-1.29-.32-2.6-.32-3.91,0-3.12.01-6.24,0-9.36,0-.95-.03-1.91-.16-2.86-.23-1.69-1.12-2.86-2.57-3.68-.89-.5-1.81-.87-2.8-1.08-2.09-.46-4.2-.46-6.31-.2-1.8.22-3.56.65-5.15,1.6-1.46.87-2.26,2.12-2.17,3.86.06,1.18.7,1.96,1.84,2.29,1.75.51,3.38-.24,4.06-1.95.3-.74.42-1.55.68-2.31.26-.78.66-1.47,1.53-1.74,1.86-.57,3.81.4,4.29,2.3.64,2.5.13,5.32-2.9,6.47-.75.29-1.5.58-2.25.88-1.5.58-3.02,1.1-4.46,1.84-1.29.66-2.32,1.6-3.01,2.88-1.16,2.16-1.17,4.35.05,6.48,1.18,2.05,3.1,2.74,5.38,2.67,2.05-.06,3.79-.89,5.41-2.06.44-.31.77-.79,1.44-.98.56,2.54,1.17,3.02,3.63,3.04,2.23.02,4.4-.44,6.56-.94.33-.08.68-.23.94-.44.47-.38.33-.95-.24-1.17Zm-10.45-5.77c-.16,1.71-.71,3.23-2.22,4.25-2.13,1.44-4.29.65-4.82-1.86-.59-2.76.17-4.4,2.16-5.56.78-.45,1.57-.89,2.35-1.35.77-.46,1.52-.94,2.47-1.52.1,2.14.23,4.09.05,6.04Z"/><path class="cls-2" d="m464.2,259.1c-.45-.05-.9-.04-1.35-.03-1.27.03-1.72-.31-1.99-1.55-.23-1.09-.3-2.19-.3-3.3,0-3.27,0-6.54,0-9.81,0-1.01-.04-2-.18-3.01-.23-1.7-1.11-2.86-2.56-3.68-.88-.5-1.81-.87-2.8-1.09-2.09-.46-4.2-.46-6.31-.21-1.75.21-3.47.63-5.02,1.51-1.46.83-2.35,2.04-2.33,3.78.01,1.32.71,2.17,1.99,2.49,1.72.43,3.26-.3,3.92-1.96.3-.74.42-1.55.67-2.31.26-.78.65-1.47,1.52-1.75,1.68-.53,3.42.24,4.15,1.86,1.17,2.59.1,5.59-2.45,6.78-.77.36-1.58.65-2.38.95-1.55.58-3.12,1.13-4.6,1.88-1.34.68-2.38,1.68-3.1,3-1.96,3.57-.2,9.29,5.48,9.04,1.93-.08,3.61-.79,5.16-1.89.52-.37,1.03-.77,1.68-1.26.62,2.69,1.21,3.15,3.8,3.15,2.23,0,4.4-.45,6.54-1,.24-.06.48-.16.7-.28.29-.16.43-.42.38-.75-.05-.36-.33-.51-.63-.55Zm-10.33-5.63c-.17,1.76-.81,3.31-2.43,4.27-2.03,1.2-3.93.45-4.57-1.82-.7-2.49.02-4.39,2.23-5.8.76-.48,1.57-.89,2.35-1.35.73-.43,1.44-.89,2.38-1.47.12,2.18.24,4.18.04,6.17Z"/><path class="cls-4" d="m62.99,154.06c9.29-6.15,18.31-5.1,25.93,3.95-.43.39-.95.19-1.41.19-1.87,0-3.7.21-5.49.82-3.8,1.29-5.08,4.32-4.83,7.63.38,4.92,3.04,8.51,7.13,11.11,3.51,2.23,7.35,3.33,11.47,3.8,3.71.43,7.32.02,10.95-.5,5.27-.75,10.45-1.97,15.58-3.38.5-.14,1-.24,1.49-.07,2.56.88,5.12,1.78,7.82,2.72-.86.85-1.83,1.26-2.72,1.74-5.14,2.78-10.62,4.48-16.42,5.19-2.55.31-5.09.6-7.66.52-7.17-.23-14.07-1.46-20.34-5.26-3.68-2.23-6.66-5.15-9.11-8.66-1.79-2.58-3.2-5.34-4.19-8.32-.46-1.38-.92-2.76-1.41-4.14-1.18-3.32-2.76-6.29-6.8-7.34Z"/><path class="cls-3" d="m128.5,170.15c-3.6,1.53-7.23,2.53-10.87,3.47-5.31,1.36-10.68,2.46-16.15,2.91-4.58.38-9.07-.13-13.17-2.4-2.41-1.34-4.46-3.1-5.52-5.76-.13-.33-.25-.66-.32-1-.49-2.4.24-3.47,2.62-4.01,2.27-.52,4.55-.32,6.74.16,7.76,1.7,15.61,2.9,23.43,4.26,3.91.68,7.83,1.3,11.75,1.94.45.07.89.14,1.49.44Z"/><path class="cls-2" d="m157.99,106.65c5.21,5.53,5.78,13.35,2.62,19.54-.81,1.59-1.89,3.09-3.2,4.35-.78.75-.97.75-1.65-.13-1.98-2.57-3.19-5.48-3.51-8.69-.52-5.2.91-9.84,4.34-13.83.39-.45.75-.93,1.4-1.24Z"/><path class="cls-2" d="m121.74,22.92c.72-6.55,3.69-12.09,10.16-15.38,1.09-.56,1.23-.5,1.57.68,1.64,5.72.72,11.01-2.77,15.83-1.65,2.28-3.77,4.02-6.31,5.24-1.13.55-1.35.47-1.68-.76-.46-1.69-1-3.37-.97-5.59Z"/><path class="cls-6" d="m108.49,88.22c-5.35-7.11-3.82-18.76,4.23-24.14,5.76,7.33,3.46,19.35-4.23,24.14Z"/><path class="cls-6" d="m178.25,151.07c-6.31-.3-11.44-3.19-14.89-8.96-.15-.26-.3-.52-.43-.8-.41-.89-.39-.98.51-1.31,2.1-.77,4.28-1.19,6.5-1.03,6.21.45,11.16,3.17,14.44,8.54,1.52,2.49,1.5,2.1-1.15,2.92-.72.22-1.46.38-2.2.47-.79.1-1.6.1-2.78.16Z"/><path class="cls-6" d="m140.4,44.67c-1.94-.02-3.81-.39-5.64-.97-1.04-.33-1.06-.39-.58-1.35,1.82-3.62,4.54-6.36,8.2-8.11,4.12-1.97,8.39-2.24,12.77-1,.34.1.67.21,1,.35.33.14.45.39.3.73-.19.41-.36.83-.59,1.22-3.46,5.92-8.71,8.81-15.46,9.15Z"/><path class="cls-3" d="m126.34,164.16c1.96-1.72,3.87-3.34,5.72-5.05,3.92-3.62,7.71-7.38,11.18-11.44.57-.67,1.17-.96,2.05-.98,2.16-.04,4.32-.18,6.48-.28.43-.02.86,0,1.24,0,.11.46-.12.62-.28.79-5.71,6.22-11.96,11.8-19.23,16.17q-3.12,1.88-6.77,1.04c-.09-.02-.17-.11-.39-.26Z"/></svg>